# xmcd
#
# Track frame offsets: 
#        150
#        20230
#        42277
#        70202
#        85010
#        104867
#        124400
#        142437
#        162285
#        185887
#        208057
#        230117
#        253287
#        273939
#        293949
#
# Disc length: 4196 seconds
#
# Revision: 0
# Processed by: cddbd v1.4PL0 Copyright (c) Steve Scherf et al.
# Submitted via: ExactAudioCopy v0.95a2
#
DISCID=0010620f
DTITLE=动力火车 - MAN
DYEAR=2003
DGENRE=Pop
TTITLE0=镇守爱情
TTITLE1=冲动
TTITLE2=路人甲
TTITLE3=也许有一天
TTITLE4=南上北下
TTITLE5=外套
TTITLE6=不过想找个人讲讲话
TTITLE7=不要爱我
TTITLE8=没有你在爱不像爱
TTITLE9=潇洒的走
TTITLE10=忠孝东路走9遍
TTITLE11=背叛情歌
TTITLE12=寄生人
TTITLE13=第二次分手
TTITLE14=醉酒的探戈
EXTD=
EXTT0=
EXTT1=
EXTT2=
EXTT3=
EXTT4=
EXTT5=
EXTT6=
EXTT7=
EXTT8=
EXTT9=
EXTT10=
EXTT11=
EXTT12=
EXTT13=
EXTT14=
PLAYORDER=
